<?xml version="1.0" encoding="utf-8"?>
<!-- Generator: Adobe Illustrator 21.0.0, SVG Export Plug-In . SVG Version: 6.00 Build 0)  -->
<svg version="1.1" id="Layer_1" xmlns="http://www.w3.org/2000/svg" xmlns:xlink="http://www.w3.org/1999/xlink" x="0px" y="0px"
	 viewBox="0 0 50 50" style="enable-background:new 0 0 50 50;" xml:space="preserve">
<style type="text/css">
	.st0{fill-rule:evenodd;clip-rule:evenodd;fill:#395398;}
	.st1{fill-rule:evenodd;clip-rule:evenodd;fill:#415FA3;}
	.st2{fill-rule:evenodd;clip-rule:evenodd;fill:#6994D1;}
	.st3{fill-rule:evenodd;clip-rule:evenodd;fill:#5479BA;}
	.st4{fill-rule:evenodd;clip-rule:evenodd;fill:#36568E;}
	.st5{fill:#FFFFFF;}
</style>
<g>
	<g>
		<path class="st0" d="M36.4,18c4.5,7,4,9.4-3.5,17.2c-2.4,0.2-4.5,2.6-7.1,0.8c-0.7-4,2.1-6.6,4.4-10.1c-5.4-1.2-10.8-1.8-14.3-6.1
			c-2.1-1.6-3.2-3.4-2-6.3c0.9-2.2,1.3-4.7,1.8-7l0,0c3.4-3,6.9-3.7,10.6-0.7c1,0.8,2.3,1.2,3.7,1.4c6.8,0.9,7.7,2.3,6.3,9.2
			C36.2,16.9,36.1,17.4,36.4,18z"/>
		<path class="st1" d="M15.7,6.4c0,2.6,0.6,5.3-0.9,7.7c-1.8,2.8,1.8,3.2,2.1,5c1.9,3.1,4.1,5.8,7.4,7.7c2.1,1.2,3.3,3.2,2.2,5.8
			c-1.9,1.6-3.8,0.6-5.1-0.6c-3.5-3.2-7.8-5.2-11.4-8.2c-0.4-0.4-0.7-0.8-1-1.3C9.7,16.5,13.3,11.7,15.7,6.4z"/>
		<path class="st1" d="M36.4,18c-1.3-0.8-0.5-1.9-0.4-2.9c0.3-3.8,0.3-7.4-5.4-6.3c-1.4,0.3-3.2,0.5-4.2-0.9
			c-3.1-4-6.8-3.7-10.7-1.4c2.2-2.3,13.8-5.1,16.1-3.8C37.2,5.4,38.6,9.9,36.4,18z"/>
		<path class="st2" d="M9,22.5c0.4,0,0.7,0,1.1,0c0.6,1.2,1.8,2,2.2,3.3c1.5,4.6,4.7,6.7,9.4,6.9c1.5,0.1,3.1,0.3,4.1,1.6
			c0.1,0.3,0.2,0.5,0.3,0.8c2.3,2,4.6-0.9,6.9,0c-2.9,2-5.9,3.3-9.4,1.1c-1.1-0.7-2.2-0.6-2.9,0.7c-2.5,4.7-5.4,2-7.1-0.2
			C10.4,32.7,6.9,28.4,9,22.5z"/>
		<path class="st3" d="M20.4,44.5c0.1-1.2,0.6-2,1.7-1.8c1.6,0.2,2.1,1.5,2,2.8c-0.1,1-0.4,2.5-1.9,2.1
			C20.9,47.2,20.6,45.7,20.4,44.5z"/>
		<path class="st3" d="M39.7,32.3c1.3,0.3,2,1.1,2,2.4c0,1.4-1,1.9-2.2,1.8c-1.3-0.1-2.1-0.8-1.9-2.1C37.7,33.1,38.4,32.4,39.7,32.3
			z"/>
		<path class="st2" d="M9.7,39.1c-0.1-0.9,0.4-1.2,0.9-1c0.4,0.1,1,0.5,1.1,0.8c0.2,0.6-0.2,1.1-0.9,0.9C10.4,39.8,10,39.4,9.7,39.1
			z"/>
		<path class="st4" d="M26.1,32.9c0.2-2.3-0.6-4.5-2.7-5.2c-4.4-1.3-5.4-4.9-6.4-8.6c3.4,3,7.1,4.9,11.8,4.6
			c1.5-0.1,3.2,0.1,3.7,1.9c0.4,1.7-1.1,2.2-2.2,2.9c-2.6,1.5-2.2,4.7-4.1,6.6l0,0C25.4,34.4,25.3,33.6,26.1,32.9z"/>
		<path class="st3" d="M26.1,32.9c0,0.8,0,1.5,0,2.3c-1.1-0.4-2.1-1-3.2-1.1C12.7,32.8,12.7,32.8,10,22.5
			C15.4,26,20.7,29.4,26.1,32.9z"/>
	</g>
	<path class="st5" d="M28.8,37.6V26.2h3.8l0.6-4.4h-4.4v-2.8c0-1.3,0.4-2.2,2.2-2.2l2.4,0v-4c-0.4-0.1-1.8-0.2-3.4-0.2
		c-3.4,0-5.7,2.1-5.7,5.9v3.3h-3.8v4.4h3.8v11.4H28.8L28.8,37.6z"/>
</g>
</svg>
