<?xml version="1.0" encoding="utf-8"?>
<!-- Generator: Adobe Illustrator 21.0.0, SVG Export Plug-In . SVG Version: 6.00 Build 0)  -->
<svg version="1.1" id="Layer_1" xmlns="http://www.w3.org/2000/svg" xmlns:xlink="http://www.w3.org/1999/xlink" x="0px" y="0px"
	 viewBox="0 0 50 50" style="enable-background:new 0 0 50 50;" xml:space="preserve">
<style type="text/css">
	.st0{fill-rule:evenodd;clip-rule:evenodd;fill:#B02A9E;}
	.st1{fill-rule:evenodd;clip-rule:evenodd;fill:#972AAB;}
	.st2{fill-rule:evenodd;clip-rule:evenodd;fill:#F04471;}
	.st3{fill-rule:evenodd;clip-rule:evenodd;fill:#CF2A8C;}
	.st4{fill-rule:evenodd;clip-rule:evenodd;fill:#9F2AA6;}
	.st5{fill-rule:evenodd;clip-rule:evenodd;fill:#B52A9B;}
	.st6{fill-rule:evenodd;clip-rule:evenodd;fill:#F38259;}
	.st7{fill-rule:evenodd;clip-rule:evenodd;fill:#F5AB4A;}
	.st8{fill:#FFFFFF;}
</style>
<g>
	<g>
		<g>
			<path class="st0" d="M5.4,14.5C2.9,9.8,3.6,7.4,9.4,5.1c5.7-2.3,31-1.9,29.1,0c-1.9,1.9,0.4,1.3-0.3,1.9c-2,1.2-4.2,1.2-6.3,1.2
				c-5,0.1-10.1,0-15.2,0c-3.8,0-6.9,1.3-8.6,4.9C7.4,14,6.6,14.7,5.4,14.5z"/>
			<path class="st1" d="M37.3,6.7c0-0.4,0-0.9,0-1.3c0.4,0,0.9,0,1.3,0c1.1,1.9,3.2,0.9,4.6,1.8c1.7,1.1,1.3,1.9-0.5,2.3
				c-1.2,1-0.4,2.8-1.4,3.9c0,0.9,0,1.7,0,2.6c-3.6,0.1-4.3-3.1-6-5.3C34.8,8.8,35.8,7.7,37.3,6.7z"/>
			<path class="st2" d="M5.4,14.5c0.5-0.5,0.9-1,1.4-1.4c5.5-6.2,13.3-5,19.3-3.3c5.9,1.7,11.6,5.6,17.3,8.8
				c3.1,3.1,3.5,6.6,1.8,10.5c-0.1,1.1-0.4,2-1.4,2.5c-1.3,1.4-1.1,3.4-1.9,4.9c-2,2.1-5.3,3.2-7.1,2.1c-5.1-3-6.6-0.1-8.1,3.8
				c-10.1,5.2-9.4,4.4-17.6-4.1C1.7,30.5,1.3,23.2,5.4,14.5z"/>
			<path class="st3" d="M42.5,19.7c-1.6,0.3-1.5-6.2-4.7-1c-1.3,2-2.6-1.1-3.7-2.2C26.8,9.8,14.7,8.3,6.8,13c0.9-4.8,4-6.8,8.8-6.6
				C21,6.5,26.4,6.5,31.9,6.5c1.7,1.3,2.7,3.8,5.3,3.8c2.6,0.9,3.2,3.9,5.3,5.3c0.5,0.4,0.9,0.8,1.4,1.3
				C44.7,18.5,43.4,19,42.5,19.7z"/>
			<path class="st3" d="M26.6,42.4c1.9-3.6-2.6-2.1-3.3-4.5c4.5,0,8.2-1.8,10.9-5c2.4,2.2-0.3,3.2,0.1,5c2.6,0.4,4.8-0.8,6.9-2.2
				c2.5-0.2,2.1,1.1,1.3,2.6C37.2,39.6,31.9,41,26.6,42.4z"/>
			<path class="st4" d="M42.5,19.7c0.5-0.9,0.9-1.8,1.4-2.7c3.6,3.7,7.6,7.3,1.3,12.1C44.4,25.9,45.4,22.2,42.5,19.7z"/>
			<path class="st4" d="M42.5,38.2c-0.1-1.1-0.3-2.1-1.3-2.6c0-1.9,0.7-3.4,2.6-4C42.3,33.6,47.4,36.9,42.5,38.2z"/>
			<path class="st0" d="M41.3,13.7C40.6,12,38.8,9.2,42.5,9c1.8-0.7,3,3.9,3,3.9S41.9,15.5,41.3,13.7z"/>
			<path class="st5" d="M37.2,10.3c-0.4,0.7-1.1,2-1.2,2c-2.5-1.1-4.3-2.7-4.2-5.8c2.2,0,4.4-0.1,6.6-0.1C38.1,7.7,37.6,9,37.2,10.3
				z"/>
		</g>
		<path class="st6" d="M10.8,45.3c-0.4-0.1-0.8-0.3-1.3-0.4c-5.3-1.4-6.9-6.3-7.6-10.3c-0.8-3.9-0.2-8.5,0.1-12.7
			c0.9-2.7,2.8-4,5.6-4.2c0.7-0.3,1.3-0.4,1.9,0.1c1.2,0.4,2.3-0.4,3.5-0.3c1.8,0.5,3.4,2.1,3.3,3.6c-0.2,3.9,1.9,3.9,4.6,3.6
			c6,4.4,5.3,4.2,2.8,11.5C21.3,42.7,17.1,45.1,10.8,45.3z"/>
		<path class="st7" d="M5.4,42.2C4.6,42.1,3.8,42,3,41.9c0.1-0.8,0.1-1.6,0.2-2.3c3.5-1.6,2.1-5.6,4-7.9c2.3-2.9,3.6-2,3.9,1.4
			c1.6,2.3,4.9,1.2,6.8,3.1c1.5,0.2,3.1,0.3,4.6,0.5c-0.5,6.4-6.3,7.2-10.4,9.7C8.6,47,6.7,45,5.4,42.2z"/>
	</g>
	<g>
		<g>
			<path class="st8" d="M28.7,37.4H17.6c-4.9,0-8.9-4-8.9-8.9v-9.8c0-4.9,4-8.9,8.9-8.9h11.1c4.9,0,8.9,4,8.9,8.9v9.8
				C37.6,33.4,33.6,37.4,28.7,37.4z M17.6,11.7c-3.8,0-7,3.1-7,7v9.8c0,3.8,3.1,7,7,7h11.1c3.8,0,7-3.1,7-7v-9.8c0-3.8-3.1-7-7-7
				H17.6z"/>
		</g>
		<g>
			<path class="st8" d="M23.1,31.5c-4.4,0-8-3.6-8-8c0-4.4,3.6-8,8-8c4.4,0,8,3.6,8,8C31.1,27.9,27.5,31.5,23.1,31.5z M23.1,17.6
				c-3.3,0-6,2.7-6,6c0,3.3,2.7,6,6,6s6-2.7,6-6C29.1,20.3,26.4,17.6,23.1,17.6z"/>
		</g>
		<g>
			<circle class="st8" cx="30.9" cy="15.8" r="1.7"/>
		</g>
	</g>
</g>
</svg>
