<?xml version="1.0" encoding="utf-8"?>
<!-- Generator: Adobe Illustrator 21.0.0, SVG Export Plug-In . SVG Version: 6.00 Build 0)  -->
<svg version="1.1" id="Layer_1" xmlns="http://www.w3.org/2000/svg" xmlns:xlink="http://www.w3.org/1999/xlink" x="0px" y="0px"
	 viewBox="0 0 50 50" style="enable-background:new 0 0 50 50;" xml:space="preserve">
<style type="text/css">
	.st0{fill-rule:evenodd;clip-rule:evenodd;fill:#6FC1EF;}
	.st1{fill-rule:evenodd;clip-rule:evenodd;fill:#7BC5F8;}
	.st2{fill-rule:evenodd;clip-rule:evenodd;fill:#C2ECFF;}
	.st3{fill-rule:evenodd;clip-rule:evenodd;fill:#9CDCFF;}
	.st4{fill-rule:evenodd;clip-rule:evenodd;fill:#E1F7FF;}
	.st5{fill-rule:evenodd;clip-rule:evenodd;fill:#60A7C6;}
	.st6{fill-rule:evenodd;clip-rule:evenodd;fill:#AFE5F9;}
	.st7{fill:#FFFFFF;}
</style>
<g>
	<g>
		<path class="st0" d="M19,47.6c-2.7-3.8-9.1-2.3-10.6-7.7c-0.6-0.9-1.6-1.5-2.2-2.4C5.4,36,5,34.3,6.7,33.4c2.3-1.3,3.6-0.2,4,2.2
			c0.5-2.2-0.3-4.2-1-6.3c-2.1-6.7,2.2-16.3,8.6-19.3c0.6-0.3,1.3,0,1.9,0.3c2.5,3.4-0.3,6.2-1,9.2c-0.8,3.3-2.6,6.9,2,9
			c4.5,2,9.8,0.2,11.8-4c2.2-4.4-0.6-7-3.7-9.3c-2.8-2.1-6.8-2-9.1-4.9c0.6-4.1,3.6-3.8,6.5-3.4c9,1.3,15.6,10.2,14.7,19.6
			c-0.6,6.4-9.3,12.2-18.8,12.3c2.7,2,4.9,4,3.2,7.6C23.6,47.4,21.6,49.2,19,47.6z"/>
		<path class="st1" d="M25.6,46.1c-0.5-5.1-3.8-7-8.5-6.9c0.3-2.9,2.2-2.4,3.4-1.9c3.4,1.2,7,0.4,9.5-1c4.5-2.5,10.7-4.6,9.7-11.6
			C38.2,13.8,32.8,8.1,24.6,8c-2,0-3.3,0.8-4.2,2.6l0,0c-7.7,4-11,11.6-8.3,19.3c0.2,0.6,0.3,1.3,0.4,1.9c0.1,1.3,0,2.6,0,3.8
			c-2.5,1.3-3.4-3-5.1-1.5c-2.2,2,1.1,3.8,1.1,5.8c-5.5-1.5-5.5-5.1-3.9-9.5c2.1-3.7,3.1-7.6,2.7-11.9c0.3-0.5,0.7-0.9,1-1.4
			c3.2-2.5,3.3-6.9,5.8-9.8C18.7,4.6,24.1,4.1,29.1,4c5.5-0.1,9,4.6,12.2,8.8c2.9,6.8,5.2,13.7,1.6,21c-4.7,4.3-9.9,7.9-14.8,11.9
			C27.4,46.2,26.6,46.8,25.6,46.1z"/>
		<path class="st2" d="M41.5,33c4.3-3,1.3-7,1.3-10.5c-0.1-3.1-1.7-6.2-2.6-9.3c-0.8-3-2.8-5.8-1.3-9.1c0.9,0,1.8-0.1,2.6-0.1
			c3.1,4.3,1.7,9.9,4,14.5c2.5,6.6-1,13-0.4,19.6c0.1,1.6-2.3,1.7-3.7,2.2c-2.6,1-5.1,1.6-6.2,5c-0.8,2.6-13,3.9-16.2,2.3
			c2.2-0.5,4.4-0.9,6.6-1.4c0.4-0.4,0.9-0.8,1.3-1.2C32.6,42.7,36.3,39.7,41.5,33z"/>
		<path class="st3" d="M38.8,4.1c1.9,2.8,1.2,6,1.3,9.1C34.6,6.9,28.7,1.9,19.6,7.2C18,8.1,15.7,7.8,13.8,8
			c-0.2-0.2-0.4-0.4-0.5-0.6c-0.3-0.8-0.2-1.5,0.5-2.1C16.3,2.7,19,1,22.6,3.2c2,1.2,3.7,0,5.6-0.4C31.8,2.1,35.8,0.2,38.8,4.1z"/>
		<path class="st4" d="M45.5,18.5c-3.9-4.1-3.6-9.4-4-14.5c4.1-0.2,5.1,1.9,4.5,5.6C45.5,12.6,45.6,15.6,45.5,18.5z"/>
		<path class="st3" d="M7.2,18.5c2.1,6.1,1.1,10.7-2.7,11.9C2.5,25.8,6.7,22.6,7.2,18.5z"/>
		<path class="st3" d="M13.8,8c-0.4,3.9-1.2,7.6-5.6,9.1c0.1-2.9,1.7-5.3,2.9-7.8C11.9,8.6,12.3,7.2,13.8,8L13.8,8z"/>
		<path class="st2" d="M13.7,7.9c-0.9,0.5-1.7,0.9-2.6,1.3c0-1.9-0.1-3.9,2.7-3.9C13.8,6.2,13.8,7.1,13.7,7.9z"/>
		<path class="st5" d="M20.4,10.6c3.2,0,6,1.1,8.7,2.5c5.9,2.9,8.1,8.2,5.5,12.6c-3.5,5.8-11.6,7.9-16.4,4c-3.2-2.6-2-6.4-1-9.7
			C18.1,16.7,19.3,13.7,20.4,10.6L20.4,10.6z"/>
		<path class="st6" d="M41.5,33c-3.3,5.9-6.7,11.5-14.5,11.9C31.8,41,36.7,37,41.5,33z"/>
	</g>
	<g>
		<polygon class="st7" points="38.3,15.6 38.3,15.6 38.3,15.6 		"/>
		<path class="st7" d="M37.2,18.3c-0.6,0.2-1,0.1-1,0.1l0-0.1c0.5-0.4,1.9-1.8,2.1-2.4c0.1-0.3,0-0.4,0-0.4l-1.7,0.7L35.1,17l0,0
			c-1-1.1-2.5-1.7-4.2-1.7c-3,0-5.5,2.1-5.5,4.8c0,0.5,0.1,1.4,0.2,1.8c0,0.1,0-0.1,0,0c-1.9-0.1-4.4-0.9-6.7-2
			c-4.4-2.2-4.7-3.8-4.7-3.8c-0.7,0.7-1,3.1-0.3,5c0.4,1.2,2,2.3,2,2.3l0,0c0,0-0.7,0-1.4-0.2c-0.7-0.2-1-0.5-1-0.5
			c-0.4,1,0.4,2.9,1.9,4.2c0.9,0.8,2.4,1.3,2.4,1.3l-2.5,0.1c-0.1,2.4,5,3.8,5,3.8l0,0C19,33.3,17.2,34,15.3,34
			c-1,0-1.9-0.1-2.8-0.4c2.5,2,5.7,3.5,9.2,3.3c9.2-0.5,14.4-8.4,14.7-16.2l0,0c0,0,0.4-0.2,1.4-1.1c0.9-0.9,1.5-2,1.5-2
			S37.8,18.2,37.2,18.3z"/>
		<path class="st7" d="M38.3,15.6C38.3,15.8,38.3,15.6,38.3,15.6L38.3,15.6z"/>
	</g>
</g>
</svg>
